<?xml version="1.0" standalone="no"?>
<!DOCTYPE svg PUBLIC "-//W3C//DTD SVG 20010904//EN"
 "http://www.w3.org/TR/2001/REC-SVG-20010904/DTD/svg10.dtd">
<svg version="1.0" xmlns="http://www.w3.org/2000/svg"
 width="640.000000pt" height="640.000000pt" viewBox="0 0 640.000000 640.000000"
 preserveAspectRatio="xMidYMid meet">

<g transform="translate(0.000000,640.000000) scale(0.100000,-0.100000)"
fill="#000000" stroke="none">
<path d="M0 3200 l0 -3200 3200 0 3200 0 0 3200 0 3200 -3200 0 -3200 0 0
-3200z m6390 0 l0 -3190 -3190 0 -3190 0 0 3190 0 3190 3190 0 3190 0 0 -3190z"/>
<path d="M3110 4699 c-61 -4 -36 -5 90 -6 96 -1 171 0 165 2 -21 7 -174 10
-255 4z"/>
<path d="M2925 4680 c-27 -7 -26 -8 15 -9 25 0 52 4 60 9 11 7 8 9 -15 9 -16
-1 -43 -5 -60 -9z"/>
<path d="M3403 4684 c10 -11 58 -13 51 -3 -3 5 -17 9 -31 9 -15 0 -23 -3 -20
-6z"/>
<path d="M3478 4673 c7 -3 16 -2 19 1 4 3 -2 6 -13 5 -11 0 -14 -3 -6 -6z"/>
<path d="M2840 4659 l-25 -9 27 4 c15 2 29 -2 31 -7 2 -6 6 -3 10 6 7 19 -3
20 -43 6z"/>
<path d="M3528 4663 c12 -2 20 -8 17 -12 -2 -5 8 -6 23 -3 l27 6 -25 7 c-14 4
-34 7 -45 7 -16 -1 -16 -2 3 -5z"/>
<path d="M2750 4635 l-35 -14 40 6 c22 3 44 9 50 14 14 13 -14 10 -55 -6z"/>
<path d="M3598 4638 c-2 -7 -4 -179 -3 -383 1 -251 -2 -372 -9 -377 -8 -5 -8
-8 0 -8 10 0 13 -407 3 -439 -2 -7 2 -16 9 -18 9 -4 12 124 12 616 0 342 -2
621 -4 621 -2 0 -6 -6 -8 -12z"/>
<path d="M2650 4600 c-13 -8 -13 -10 2 -10 9 0 20 5 23 10 8 13 -5 13 -25 0z"/>
<path d="M2600 4580 c-12 -8 -11 -10 8 -10 12 0 22 5 22 10 0 13 -11 13 -30 0z"/>
<path d="M2550 4554 l-25 -15 25 7 c28 7 35 12 29 18 -2 2 -15 -2 -29 -10z"/>
<path d="M2433 4493 c-34 -21 -72 -46 -85 -56 l-23 -19 27 16 c15 9 33 16 40
16 7 0 19 9 26 20 7 11 18 20 25 20 12 0 68 39 56 40 -3 0 -33 -17 -66 -37z"/>
<path d="M2676 4487 c3 -10 9 -15 12 -12 3 3 0 11 -7 18 -10 9 -11 8 -5 -6z"/>
<path d="M4050 3398 c0 -1001 -1 -1055 -19 -1094 -38 -84 -147 -144 -233 -127
-82 15 -158 80 -177 150 -7 23 -11 165 -11 356 l0 317 -405 0 -405 0 0 -635 0
-634 38 -10 c117 -32 240 -43 412 -38 187 6 260 18 420 69 137 44 249 99 375
183 338 226 558 555 646 965 32 150 33 439 1 586 -59 272 -166 490 -344 701
-64 75 -187 187 -265 242 l-33 22 0 -1053z"/>
<path d="M2265 4379 c-66 -53 -166 -152 -218 -214 -23 -27 12 4 78 71 66 66
134 129 152 139 18 10 35 25 37 32 7 17 8 18 -49 -28z"/>
<path d="M2515 4260 c3 -5 8 -10 11 -10 2 0 4 5 4 10 0 6 -5 10 -11 10 -5 0
-7 -4 -4 -10z"/>
<path d="M2500 4220 c-18 -10 -53 -23 -60 -22 -3 0 -16 -15 -30 -34 -14 -18
-29 -32 -35 -30 -5 2 -10 -10 -11 -26 l-1 -29 17 29 c44 72 141 120 220 109
22 -3 40 -1 40 4 0 11 -120 11 -140 -1z"/>
<path d="M2685 4192 c28 -18 74 -66 103 -108 7 -10 1 4 -13 31 -17 34 -38 57
-65 73 -47 26 -68 30 -25 4z"/>
<path d="M1968 4063 c-19 -27 -45 -66 -58 -88 l-23 -40 27 29 c14 16 26 35 26
41 0 7 7 18 14 25 15 12 58 80 52 80 -3 0 -20 -21 -38 -47z"/>
<path d="M1990 4050 c0 -5 5 -10 11 -10 5 0 7 5 4 10 -3 6 -8 10 -11 10 -2 0
-4 -4 -4 -10z"/>
<path d="M2345 4039 c-3 -13 -7 -49 -8 -80 -1 -45 -5 -56 -17 -52 -12 4 -12 2
1 -6 15 -10 16 -97 16 -970 l-1 -960 -43 30 c-58 40 -55 29 5 -16 l47 -37 5
1054 c3 579 4 1055 3 1057 -1 2 -5 -7 -8 -20z"/>
<path d="M2798 3848 c4 -405 8 -442 10 -115 1 180 -1 327 -5 327 -5 0 -7 -96
-5 -212z"/>
<path d="M1855 3880 c-14 -29 -24 -54 -21 -57 2 -3 16 19 30 48 33 69 25 77
-9 9z"/>
<path d="M2170 3849 c0 -5 5 -7 10 -4 6 3 10 8 10 11 0 2 -4 4 -10 4 -5 0 -10
-5 -10 -11z"/>
<path d="M1817 3795 c-4 -8 -2 -17 3 -20 6 -4 10 3 10 14 0 25 -6 27 -13 6z"/>
<path d="M1780 3702 c-35 -102 -35 -98 -21 -86 7 6 13 18 15 25 1 8 10 38 20
67 10 29 16 55 14 58 -2 2 -15 -27 -28 -64z"/>
<path d="M1745 3588 c-12 -33 -35 -146 -34 -168 0 -23 1 -23 9 -5 5 11 9 36 9
56 1 19 6 40 13 47 7 7 9 12 6 12 -3 0 -2 16 2 35 8 34 4 48 -5 23z"/>
<path d="M3166 3418 c3 -5 10 -6 15 -3 13 9 11 12 -6 12 -8 0 -12 -4 -9 -9z"/>
<path d="M1695 3290 c-8 -114 5 -343 15 -255 3 28 2 54 -1 59 -4 4 -3 21 1 36
5 16 5 31 2 35 -3 3 -5 55 -4 115 2 61 1 110 -1 110 -3 0 -8 -45 -12 -100z"/>
<path d="M1710 2952 c0 -18 4 -32 9 -32 5 0 7 12 5 27 -7 39 -14 42 -14 5z"/>
<path d="M1721 2894 c0 -11 3 -14 6 -6 3 7 2 16 -1 19 -3 4 -6 -2 -5 -13z"/>
<path d="M1885 2890 c-3 -6 1 -7 9 -4 18 7 21 14 7 14 -6 0 -13 -4 -16 -10z"/>
<path d="M1731 2854 c0 -10 5 -28 10 -39 7 -16 8 -13 5 13 -5 37 -16 57 -15
26z"/>
<path d="M1751 2773 c0 -4 4 -17 9 -28 8 -19 9 -19 9 2 1 12 -3 25 -9 28 -5 3
-10 3 -9 -2z"/>
<path d="M1776 2700 c10 -38 32 -87 32 -70 0 8 -8 33 -19 55 -10 22 -16 29
-13 15z"/>
<path d="M1810 2603 c0 -5 5 -15 10 -23 8 -12 10 -11 10 8 0 12 -4 22 -10 22
-5 0 -10 -3 -10 -7z"/>
<path d="M1856 2508 c40 -81 148 -241 153 -227 2 7 -4 18 -15 26 -10 7 -14 13
-8 13 5 0 4 4 -2 8 -20 13 -83 119 -76 127 4 5 1 5 -5 1 -9 -5 -13 0 -13 12 0
11 -7 25 -15 32 -8 7 -12 16 -9 21 3 5 0 9 -5 9 -6 0 -11 7 -11 15 0 8 -5 15
-10 15 -6 0 1 -24 16 -52z"/>
<path d="M2032 2243 c17 -27 107 -123 115 -123 3 0 0 6 -6 13 -6 8 -7 17 -3
21 4 4 2 6 -3 4 -6 -1 -34 22 -64 52 -29 30 -47 45 -39 33z"/>
<path d="M2195 2070 c21 -22 41 -37 44 -35 5 5 -67 75 -77 75 -3 0 11 -18 33
-40z"/>
</g>
</svg>
