<?xml version="1.0" standalone="no"?>
<!DOCTYPE svg PUBLIC "-//W3C//DTD SVG 20010904//EN"
 "http://www.w3.org/TR/2001/REC-SVG-20010904/DTD/svg10.dtd">
<svg version="1.0" xmlns="http://www.w3.org/2000/svg"
 width="512.000000pt" height="512.000000pt" viewBox="0 0 512.000000 512.000000"
 preserveAspectRatio="xMidYMid meet">

<g transform="translate(0.000000,512.000000) scale(0.100000,-0.100000)"
fill="#000000" stroke="none">
<path d="M78 5099 c-23 -12 -46 -35 -58 -59 -20 -39 -20 -54 -20 -2480 0
-2427 0 -2441 20 -2480 13 -26 34 -47 60 -60 39 -20 53 -20 2480 -20 2427 0
2441 0 2480 20 45 23 80 80 80 130 0 50 -35 107 -80 130 -39 20 -54 20 -2390
20 l-2350 0 0 2350 c0 2336 0 2351 -20 2390 -37 73 -127 99 -202 59z"/>
<path d="M3838 4789 c-43 -22 -78 -81 -78 -129 0 -45 35 -107 73 -127 22 -12
63 -20 128 -23 l96 -5 -1706 -916 c-1621 -870 -1707 -917 -1728 -955 -43 -74
-20 -159 53 -201 62 -36 93 -30 233 43 105 55 3371 1807 3393 1821 5 2 -15
-42 -42 -98 -56 -115 -61 -154 -27 -213 42 -73 126 -96 202 -53 38 21 50 42
208 355 122 242 167 342 167 367 0 54 -34 112 -80 135 -37 19 -58 20 -447 20
-386 -1 -410 -2 -445 -21z"/>
<path d="M4288 3589 c-23 -12 -46 -35 -58 -59 -20 -39 -20 -56 -20 -1425 0
-1369 0 -1386 20 -1425 13 -26 34 -47 60 -60 37 -19 58 -20 375 -20 317 0 338
1 375 20 26 13 47 34 60 60 20 39 20 56 20 1425 0 1369 0 1386 -20 1425 -13
26 -34 47 -60 60 -37 19 -58 20 -377 20 -317 -1 -340 -2 -375 -21z"/>
<path d="M3088 2989 c-23 -12 -46 -35 -58 -59 -20 -39 -20 -57 -20 -1125 0
-1068 0 -1086 20 -1125 13 -26 34 -47 60 -60 37 -19 58 -20 370 -20 312 0 333
1 370 20 26 13 47 34 60 60 20 39 20 57 20 1125 0 1068 0 1086 -20 1125 -13
26 -34 47 -60 60 -37 19 -58 20 -372 20 -312 -1 -335 -2 -370 -21z"/>
<path d="M1888 2389 c-23 -12 -46 -35 -58 -59 -20 -38 -20 -58 -20 -825 0
-768 0 -787 20 -825 13 -26 34 -47 60 -60 37 -19 58 -20 370 -20 312 0 333 1
370 20 26 13 47 34 60 60 20 38 20 57 20 825 0 768 0 787 -20 825 -13 26 -34
47 -60 60 -37 19 -58 20 -372 20 -312 -1 -335 -2 -370 -21z"/>
<path d="M678 1789 c-23 -12 -46 -35 -58 -59 -19 -38 -20 -58 -20 -525 0 -467
1 -487 20 -525 13 -26 34 -47 60 -60 37 -19 58 -20 375 -20 317 0 338 1 375
20 26 13 47 34 60 60 19 38 20 58 20 525 0 467 -1 487 -20 525 -13 26 -34 47
-60 60 -37 19 -58 20 -377 20 -317 -1 -340 -2 -375 -21z"/>
</g>
</svg>
