<?xml version="1.0" standalone="no"?>
<!DOCTYPE svg PUBLIC "-//W3C//DTD SVG 20010904//EN"
 "http://www.w3.org/TR/2001/REC-SVG-20010904/DTD/svg10.dtd">
<svg version="1.0" xmlns="http://www.w3.org/2000/svg"
 width="512.000000pt" height="512.000000pt" viewBox="0 0 512.000000 512.000000"
 preserveAspectRatio="xMidYMid meet">

<g transform="translate(0.000000,512.000000) scale(0.100000,-0.100000)"
fill="#000000" stroke="none">
<path d="M4340 4636 c-383 -189 -746 -310 -1430 -476 -613 -149 -1075 -348
-1453 -627 -131 -97 -353 -321 -439 -443 -117 -165 -210 -375 -253 -570 -26
-118 -32 -409 -10 -545 16 -106 68 -305 97 -373 l14 -32 60 87 c355 523 953
968 1618 1202 49 17 91 30 93 27 2 -2 -36 -25 -84 -52 -563 -306 -1069 -749
-1421 -1243 -227 -320 -411 -701 -494 -1023 -28 -111 -29 -120 -14 -143 19
-29 56 -33 78 -7 9 9 21 44 28 77 32 159 148 462 250 650 77 141 59 133 179
85 397 -157 838 -201 1216 -119 506 109 937 430 1289 963 467 705 771 1614
836 2500 5 77 9 140 7 141 -1 1 -76 -34 -167 -79z"/>
</g>
</svg>
