<?xml version="1.0" standalone="no"?>
<!DOCTYPE svg PUBLIC "-//W3C//DTD SVG 20010904//EN"
 "http://www.w3.org/TR/2001/REC-SVG-20010904/DTD/svg10.dtd">
<svg version="1.0" xmlns="http://www.w3.org/2000/svg"
 width="512.000000pt" height="512.000000pt" viewBox="0 0 512.000000 512.000000"
 preserveAspectRatio="xMidYMid meet">

<g transform="translate(0.000000,512.000000) scale(0.100000,-0.100000)"
fill="#000000" stroke="none">
<path d="M1830 4595 c-45 -9 -107 -30 -158 -55 -127 -63 -183 -125 -365 -401
l-155 -237 -319 -5 c-353 -5 -381 -9 -508 -75 -99 -51 -208 -163 -258 -263
-69 -141 -67 -88 -67 -1354 0 -1265 -2 -1215 66 -1355 52 -105 170 -223 274
-273 150 -71 8 -67 2220 -67 2212 0 2070 -4 2220 67 104 50 222 168 274 273
68 140 66 90 66 1355 0 1266 2 1213 -67 1354 -50 100 -159 212 -258 263 -127
66 -155 70 -508 75 l-319 5 -155 237 c-182 276 -238 338 -365 401 -138 68
-154 69 -893 69 -500 -1 -667 -4 -725 -14z m974 -851 c526 -88 962 -498 1095
-1029 182 -731 -277 -1483 -1012 -1660 -809 -194 -1598 355 -1696 1180 -67
563 223 1109 730 1374 271 142 569 187 883 135z m1706 -376 c132 -90 104 -289
-45 -327 -55 -14 -268 -14 -317 -1 -69 19 -137 102 -138 165 0 38 21 95 47
126 44 52 71 58 254 59 156 0 168 -1 199 -22z"/>
<path d="M2483 3149 c-253 -24 -483 -180 -602 -409 -198 -379 -48 -842 334
-1031 215 -106 471 -107 683 -3 287 141 464 466 423 776 -56 419 -417 706
-838 667z"/>
</g>
</svg>
